# xmcd
#
# Track frame offsets: 
#        150
#        12458
#        23206
#        36083
#        51547
#        64469
#        80076
#        95186
#        108278
#        123544
#        136908
#        150415
#        188444
#        215352
#        228128
#        242660
#        272348
#        285907
#        301925
#        317737
#
# Disc length: 4453 seconds
#
# Revision: 1
# Processed by: cddbd v1.5.2PL0 Copyright (c) Steve Scherf et al.
# Submitted via: ExactAudioCopy v0.99pb3
#
DISCID=0f116314
DTITLE=Various Artist - 100 Hits Dance Anthems [CD5)
DYEAR=2009
DGENRE=Dance
TTITLE0=Tomcraft - Loneliness (radio edit)
TTITLE1=Benni benassi - Satisfaction (radio edit)
TTITLE2=Supermode - Tell me why (radio edit)
TTITLE3=Jakatta - So Lonely (radio edit)
TTITLE4=Storm - Time to burn
TTITLE5=Rui De Silva - Touch me
TTITLE6=David Morales - Needin You
TTITLE7=Lisa Marie Exp - Keep on Jumpin 2007
TTITLE8=Kenny  "Dope" pres the Bucketheads - The Bomb
TTITLE9=Paul Johnson - Get Down
TTITLE10=Studio B - I see girls (crazy) (Tom Neville Edit)
TTITLE11=Chanel  - My Life (Haji and Emanual Vocal Mix)
TTITLE12=MAW presents India - To be in Love
TTITLE13=Cleptomaniacs - All I Do
TTITLE14=Blaze Ft Barbara Tucker - Most Precious Love
TTITLE15=Tom Novy - Your Body
TTITLE16=Intenso - Get it on
TTITLE17=The Original - I love you baby
TTITLE18=Chocalate Puma - I wanna be you
TTITLE19=Rozalla - Everybody's Free (to feel good)
EXTD=
EXTT0=
EXTT1=
EXTT2=
EXTT3=
EXTT4=
EXTT5=
EXTT6=
EXTT7=
EXTT8=
EXTT9=
EXTT10=
EXTT11=
EXTT12=
EXTT13=
EXTT14=
EXTT15=
EXTT16=
EXTT17=
EXTT18=
EXTT19=
PLAYORDER=
